<mxfile host="app.diagrams.net" agent="Mozilla/5.0 (Windows NT 10.0; Win64; x64) AppleWebKit/537.36 (KHTML, like Gecko) Chrome/135.0.0.0 Safari/537.36" version="26.2.14">
  <diagram id="C5RBs43oDa-KdzZeNtuy" name="Page-1">
    <mxGraphModel dx="3064" dy="1447" grid="1" gridSize="10" guides="1" tooltips="1" connect="1" arrows="1" fold="1" page="1" pageScale="1" pageWidth="827" pageHeight="1169" math="0" shadow="0">
      <root>
        <mxCell id="WIyWlLk6GJQsqaUBKTNV-0" />
        <mxCell id="WIyWlLk6GJQsqaUBKTNV-1" parent="WIyWlLk6GJQsqaUBKTNV-0" />
        <mxCell id="zkfFHV4jXpPFQw0GAbJ--0" value="Salle" style="swimlane;fontStyle=2;align=center;verticalAlign=top;childLayout=stackLayout;horizontal=1;startSize=26;horizontalStack=0;resizeParent=1;resizeLast=0;collapsible=1;marginBottom=0;rounded=0;shadow=0;strokeWidth=1;" parent="WIyWlLk6GJQsqaUBKTNV-1" vertex="1">
          <mxGeometry x="1790" y="1470" width="160" height="110" as="geometry">
            <mxRectangle x="230" y="140" width="160" height="26" as="alternateBounds" />
          </mxGeometry>
        </mxCell>
        <mxCell id="zkfFHV4jXpPFQw0GAbJ--1" value="+int Id" style="text;align=left;verticalAlign=top;spacingLeft=4;spacingRight=4;overflow=hidden;rotatable=0;points=[[0,0.5],[1,0.5]];portConstraint=eastwest;" parent="zkfFHV4jXpPFQw0GAbJ--0" vertex="1">
          <mxGeometry y="26" width="160" height="26" as="geometry" />
        </mxCell>
        <mxCell id="zkfFHV4jXpPFQw0GAbJ--2" value="+string Nom" style="text;align=left;verticalAlign=top;spacingLeft=4;spacingRight=4;overflow=hidden;rotatable=0;points=[[0,0.5],[1,0.5]];portConstraint=eastwest;rounded=0;shadow=0;html=0;" parent="zkfFHV4jXpPFQw0GAbJ--0" vertex="1">
          <mxGeometry y="52" width="160" height="26" as="geometry" />
        </mxCell>
        <mxCell id="zkfFHV4jXpPFQw0GAbJ--4" value="" style="line;html=1;strokeWidth=1;align=left;verticalAlign=middle;spacingTop=-1;spacingLeft=3;spacingRight=3;rotatable=0;labelPosition=right;points=[];portConstraint=eastwest;" parent="zkfFHV4jXpPFQw0GAbJ--0" vertex="1">
          <mxGeometry y="78" width="160" height="8" as="geometry" />
        </mxCell>
        <mxCell id="zkfFHV4jXpPFQw0GAbJ--16" value="" style="endArrow=block;endSize=10;endFill=0;shadow=0;strokeWidth=1;rounded=0;curved=0;edgeStyle=elbowEdgeStyle;elbow=vertical;" parent="WIyWlLk6GJQsqaUBKTNV-1" edge="1">
          <mxGeometry width="160" relative="1" as="geometry">
            <mxPoint x="480" y="750" as="sourcePoint" />
            <mxPoint x="230" y="540" as="targetPoint" />
          </mxGeometry>
        </mxCell>
        <mxCell id="cwjUSwcgFx_ftopS6102-0" value="NFCReader" style="swimlane;fontStyle=2;align=center;verticalAlign=top;childLayout=stackLayout;horizontal=1;startSize=26;horizontalStack=0;resizeParent=1;resizeLast=0;collapsible=1;marginBottom=0;rounded=0;shadow=0;strokeWidth=1;" parent="WIyWlLk6GJQsqaUBKTNV-1" vertex="1">
          <mxGeometry x="1350" y="1660" width="160" height="110" as="geometry">
            <mxRectangle x="230" y="140" width="160" height="26" as="alternateBounds" />
          </mxGeometry>
        </mxCell>
        <mxCell id="cwjUSwcgFx_ftopS6102-3" value="" style="line;html=1;strokeWidth=1;align=left;verticalAlign=middle;spacingTop=-1;spacingLeft=3;spacingRight=3;rotatable=0;labelPosition=right;points=[];portConstraint=eastwest;" parent="cwjUSwcgFx_ftopS6102-0" vertex="1">
          <mxGeometry y="26" width="160" height="8" as="geometry" />
        </mxCell>
        <mxCell id="cwjUSwcgFx_ftopS6102-4" value="+Task LireUIDNFAcsync()" style="text;align=left;verticalAlign=top;spacingLeft=4;spacingRight=4;overflow=hidden;rotatable=0;points=[[0,0.5],[1,0.5]];portConstraint=eastwest;rounded=0;shadow=0;html=0;" parent="cwjUSwcgFx_ftopS6102-0" vertex="1">
          <mxGeometry y="34" width="160" height="26" as="geometry" />
        </mxCell>
        <mxCell id="cwjUSwcgFx_ftopS6102-14" value="Badge" style="swimlane;fontStyle=2;align=center;verticalAlign=top;childLayout=stackLayout;horizontal=1;startSize=26;horizontalStack=0;resizeParent=1;resizeLast=0;collapsible=1;marginBottom=0;rounded=0;shadow=0;strokeWidth=1;" parent="WIyWlLk6GJQsqaUBKTNV-1" vertex="1">
          <mxGeometry x="980" y="1320" width="160" height="190" as="geometry">
            <mxRectangle x="230" y="140" width="160" height="26" as="alternateBounds" />
          </mxGeometry>
        </mxCell>
        <mxCell id="cwjUSwcgFx_ftopS6102-15" value="+int Id" style="text;align=left;verticalAlign=top;spacingLeft=4;spacingRight=4;overflow=hidden;rotatable=0;points=[[0,0.5],[1,0.5]];portConstraint=eastwest;" parent="cwjUSwcgFx_ftopS6102-14" vertex="1">
          <mxGeometry y="26" width="160" height="26" as="geometry" />
        </mxCell>
        <mxCell id="cwjUSwcgFx_ftopS6102-16" value="+string Nom" style="text;align=left;verticalAlign=top;spacingLeft=4;spacingRight=4;overflow=hidden;rotatable=0;points=[[0,0.5],[1,0.5]];portConstraint=eastwest;rounded=0;shadow=0;html=0;" parent="cwjUSwcgFx_ftopS6102-14" vertex="1">
          <mxGeometry y="52" width="160" height="26" as="geometry" />
        </mxCell>
        <mxCell id="cwjUSwcgFx_ftopS6102-22" value="&lt;span style=&quot;text-wrap-mode: nowrap;&quot;&gt;&amp;nbsp;+bool Actif&lt;/span&gt;" style="text;whiteSpace=wrap;html=1;" parent="cwjUSwcgFx_ftopS6102-14" vertex="1">
          <mxGeometry y="78" width="160" height="40" as="geometry" />
        </mxCell>
        <mxCell id="cwjUSwcgFx_ftopS6102-17" value="" style="line;html=1;strokeWidth=1;align=left;verticalAlign=middle;spacingTop=-1;spacingLeft=3;spacingRight=3;rotatable=0;labelPosition=right;points=[];portConstraint=eastwest;" parent="cwjUSwcgFx_ftopS6102-14" vertex="1">
          <mxGeometry y="118" width="160" height="28" as="geometry" />
        </mxCell>
        <mxCell id="cwjUSwcgFx_ftopS6102-23" value="&lt;span style=&quot;text-wrap-mode: nowrap;&quot;&gt;&amp;nbsp;+ToString()&lt;/span&gt;" style="text;whiteSpace=wrap;html=1;" parent="cwjUSwcgFx_ftopS6102-14" vertex="1">
          <mxGeometry y="146" width="160" height="40" as="geometry" />
        </mxCell>
        <mxCell id="cwjUSwcgFx_ftopS6102-18" value="FrmGestionBadgesSalles" style="swimlane;fontStyle=2;align=center;verticalAlign=top;childLayout=stackLayout;horizontal=1;startSize=26;horizontalStack=0;resizeParent=1;resizeLast=0;collapsible=1;marginBottom=0;rounded=0;shadow=0;strokeWidth=1;" parent="WIyWlLk6GJQsqaUBKTNV-1" vertex="1">
          <mxGeometry x="460" y="40" width="220" height="140" as="geometry">
            <mxRectangle x="230" y="140" width="160" height="26" as="alternateBounds" />
          </mxGeometry>
        </mxCell>
        <mxCell id="cwjUSwcgFx_ftopS6102-19" value="+DataGridView dataGridViewBadges" style="text;align=left;verticalAlign=top;spacingLeft=4;spacingRight=4;overflow=hidden;rotatable=0;points=[[0,0.5],[1,0.5]];portConstraint=eastwest;" parent="cwjUSwcgFx_ftopS6102-18" vertex="1">
          <mxGeometry y="26" width="220" height="26" as="geometry" />
        </mxCell>
        <mxCell id="cwjUSwcgFx_ftopS6102-20" value="+Checkbox checkBoxIsActive" style="text;align=left;verticalAlign=top;spacingLeft=4;spacingRight=4;overflow=hidden;rotatable=0;points=[[0,0.5],[1,0.5]];portConstraint=eastwest;rounded=0;shadow=0;html=0;" parent="cwjUSwcgFx_ftopS6102-18" vertex="1">
          <mxGeometry y="52" width="220" height="26" as="geometry" />
        </mxCell>
        <mxCell id="cwjUSwcgFx_ftopS6102-24" value="+Button BtnAfficherUtilisateurs" style="text;align=left;verticalAlign=top;spacingLeft=4;spacingRight=4;overflow=hidden;rotatable=0;points=[[0,0.5],[1,0.5]];portConstraint=eastwest;rounded=0;shadow=0;html=0;" parent="cwjUSwcgFx_ftopS6102-18" vertex="1">
          <mxGeometry y="78" width="220" height="26" as="geometry" />
        </mxCell>
        <mxCell id="cwjUSwcgFx_ftopS6102-21" value="" style="line;html=1;strokeWidth=1;align=left;verticalAlign=middle;spacingTop=-1;spacingLeft=3;spacingRight=3;rotatable=0;labelPosition=right;points=[];portConstraint=eastwest;" parent="cwjUSwcgFx_ftopS6102-18" vertex="1">
          <mxGeometry y="104" width="220" height="8" as="geometry" />
        </mxCell>
        <mxCell id="cwjUSwcgFx_ftopS6102-25" value="+BtnAfficherUtilisateurs_Click()" style="text;align=left;verticalAlign=top;spacingLeft=4;spacingRight=4;overflow=hidden;rotatable=0;points=[[0,0.5],[1,0.5]];portConstraint=eastwest;rounded=0;shadow=0;html=0;" parent="cwjUSwcgFx_ftopS6102-18" vertex="1">
          <mxGeometry y="112" width="220" height="26" as="geometry" />
        </mxCell>
        <mxCell id="cwjUSwcgFx_ftopS6102-26" value="FrmGestionBadgesSalles" style="swimlane;fontStyle=2;align=center;verticalAlign=top;childLayout=stackLayout;horizontal=1;startSize=26;horizontalStack=0;resizeParent=1;resizeLast=0;collapsible=1;marginBottom=0;rounded=0;shadow=0;strokeWidth=1;" parent="WIyWlLk6GJQsqaUBKTNV-1" vertex="1">
          <mxGeometry x="1830" y="1770" width="220" height="140" as="geometry">
            <mxRectangle x="230" y="140" width="160" height="26" as="alternateBounds" />
          </mxGeometry>
        </mxCell>
        <mxCell id="cwjUSwcgFx_ftopS6102-27" value="+DataGridView dataGridViewBadges" style="text;align=left;verticalAlign=top;spacingLeft=4;spacingRight=4;overflow=hidden;rotatable=0;points=[[0,0.5],[1,0.5]];portConstraint=eastwest;" parent="cwjUSwcgFx_ftopS6102-26" vertex="1">
          <mxGeometry y="26" width="220" height="26" as="geometry" />
        </mxCell>
        <mxCell id="cwjUSwcgFx_ftopS6102-28" value="+Checkbox checkBoxIsActive" style="text;align=left;verticalAlign=top;spacingLeft=4;spacingRight=4;overflow=hidden;rotatable=0;points=[[0,0.5],[1,0.5]];portConstraint=eastwest;rounded=0;shadow=0;html=0;" parent="cwjUSwcgFx_ftopS6102-26" vertex="1">
          <mxGeometry y="52" width="220" height="26" as="geometry" />
        </mxCell>
        <mxCell id="cwjUSwcgFx_ftopS6102-29" value="+Button BtnAfficherUtilisateurs" style="text;align=left;verticalAlign=top;spacingLeft=4;spacingRight=4;overflow=hidden;rotatable=0;points=[[0,0.5],[1,0.5]];portConstraint=eastwest;rounded=0;shadow=0;html=0;" parent="cwjUSwcgFx_ftopS6102-26" vertex="1">
          <mxGeometry y="78" width="220" height="26" as="geometry" />
        </mxCell>
        <mxCell id="cwjUSwcgFx_ftopS6102-30" value="" style="line;html=1;strokeWidth=1;align=left;verticalAlign=middle;spacingTop=-1;spacingLeft=3;spacingRight=3;rotatable=0;labelPosition=right;points=[];portConstraint=eastwest;" parent="cwjUSwcgFx_ftopS6102-26" vertex="1">
          <mxGeometry y="104" width="220" height="8" as="geometry" />
        </mxCell>
        <mxCell id="cwjUSwcgFx_ftopS6102-31" value="+BtnAfficherUtilisateurs_Click()" style="text;align=left;verticalAlign=top;spacingLeft=4;spacingRight=4;overflow=hidden;rotatable=0;points=[[0,0.5],[1,0.5]];portConstraint=eastwest;rounded=0;shadow=0;html=0;" parent="cwjUSwcgFx_ftopS6102-26" vertex="1">
          <mxGeometry y="112" width="220" height="26" as="geometry" />
        </mxCell>
        <mxCell id="cwjUSwcgFx_ftopS6102-32" value="FormAfficherUtilisateurs" style="swimlane;fontStyle=2;align=center;verticalAlign=top;childLayout=stackLayout;horizontal=1;startSize=26;horizontalStack=0;resizeParent=1;resizeLast=0;collapsible=1;marginBottom=0;rounded=0;shadow=0;strokeWidth=1;" parent="WIyWlLk6GJQsqaUBKTNV-1" vertex="1">
          <mxGeometry x="1880" y="900" width="230" height="160" as="geometry">
            <mxRectangle x="230" y="140" width="160" height="26" as="alternateBounds" />
          </mxGeometry>
        </mxCell>
        <mxCell id="cwjUSwcgFx_ftopS6102-33" value="+DataGridView dataGridViewUtilisateurs" style="text;align=left;verticalAlign=top;spacingLeft=4;spacingRight=4;overflow=hidden;rotatable=0;points=[[0,0.5],[1,0.5]];portConstraint=eastwest;" parent="cwjUSwcgFx_ftopS6102-32" vertex="1">
          <mxGeometry y="26" width="230" height="26" as="geometry" />
        </mxCell>
        <mxCell id="cwjUSwcgFx_ftopS6102-36" value="" style="line;html=1;strokeWidth=1;align=left;verticalAlign=middle;spacingTop=-1;spacingLeft=3;spacingRight=3;rotatable=0;labelPosition=right;points=[];portConstraint=eastwest;" parent="cwjUSwcgFx_ftopS6102-32" vertex="1">
          <mxGeometry y="52" width="230" height="28" as="geometry" />
        </mxCell>
        <mxCell id="cwjUSwcgFx_ftopS6102-37" value="&lt;span style=&quot;text-wrap-mode: nowrap;&quot;&gt;+FormAfficherUtilisateurs_Load()&lt;/span&gt;" style="text;whiteSpace=wrap;html=1;" parent="cwjUSwcgFx_ftopS6102-32" vertex="1">
          <mxGeometry y="80" width="230" height="40" as="geometry" />
        </mxCell>
        <mxCell id="cwjUSwcgFx_ftopS6102-38" value="+ChargerUtilisateurs()" style="text;whiteSpace=wrap;html=1;" parent="cwjUSwcgFx_ftopS6102-32" vertex="1">
          <mxGeometry y="120" width="230" height="40" as="geometry" />
        </mxCell>
        <mxCell id="cwjUSwcgFx_ftopS6102-39" value="FrmListeUtilisateurs" style="swimlane;fontStyle=2;align=center;verticalAlign=top;childLayout=stackLayout;horizontal=1;startSize=26;horizontalStack=0;resizeParent=1;resizeLast=0;collapsible=1;marginBottom=0;rounded=0;shadow=0;strokeWidth=1;" parent="WIyWlLk6GJQsqaUBKTNV-1" vertex="1">
          <mxGeometry x="1550" y="2000" width="230" height="160" as="geometry">
            <mxRectangle x="230" y="140" width="160" height="26" as="alternateBounds" />
          </mxGeometry>
        </mxCell>
        <mxCell id="cwjUSwcgFx_ftopS6102-40" value="+DataGridView dataGridViewUtilisateurs" style="text;align=left;verticalAlign=top;spacingLeft=4;spacingRight=4;overflow=hidden;rotatable=0;points=[[0,0.5],[1,0.5]];portConstraint=eastwest;" parent="cwjUSwcgFx_ftopS6102-39" vertex="1">
          <mxGeometry y="26" width="230" height="26" as="geometry" />
        </mxCell>
        <mxCell id="cwjUSwcgFx_ftopS6102-41" value="" style="line;html=1;strokeWidth=1;align=left;verticalAlign=middle;spacingTop=-1;spacingLeft=3;spacingRight=3;rotatable=0;labelPosition=right;points=[];portConstraint=eastwest;" parent="cwjUSwcgFx_ftopS6102-39" vertex="1">
          <mxGeometry y="52" width="230" height="28" as="geometry" />
        </mxCell>
        <mxCell id="cwjUSwcgFx_ftopS6102-42" value="&lt;span style=&quot;text-wrap-mode: nowrap;&quot;&gt;+FrmListeUtilisateurs_Load()&lt;/span&gt;" style="text;whiteSpace=wrap;html=1;" parent="cwjUSwcgFx_ftopS6102-39" vertex="1">
          <mxGeometry y="80" width="230" height="40" as="geometry" />
        </mxCell>
        <mxCell id="cwjUSwcgFx_ftopS6102-43" value="+ChargerUtilisateurs()" style="text;whiteSpace=wrap;html=1;" parent="cwjUSwcgFx_ftopS6102-39" vertex="1">
          <mxGeometry y="120" width="230" height="40" as="geometry" />
        </mxCell>
        <mxCell id="cwjUSwcgFx_ftopS6102-44" value="ApiService" style="swimlane;fontStyle=2;align=center;verticalAlign=top;childLayout=stackLayout;horizontal=1;startSize=26;horizontalStack=0;resizeParent=1;resizeLast=0;collapsible=1;marginBottom=0;rounded=0;shadow=0;strokeWidth=1;" parent="WIyWlLk6GJQsqaUBKTNV-1" vertex="1">
          <mxGeometry x="1300" y="1210" width="400" height="334" as="geometry">
            <mxRectangle x="230" y="140" width="160" height="26" as="alternateBounds" />
          </mxGeometry>
        </mxCell>
        <mxCell id="cwjUSwcgFx_ftopS6102-46" value="" style="line;html=1;strokeWidth=1;align=left;verticalAlign=middle;spacingTop=-1;spacingLeft=3;spacingRight=3;rotatable=0;labelPosition=right;points=[];portConstraint=eastwest;" parent="cwjUSwcgFx_ftopS6102-44" vertex="1">
          <mxGeometry y="26" width="400" height="28" as="geometry" />
        </mxCell>
        <mxCell id="cwjUSwcgFx_ftopS6102-47" value="&lt;span style=&quot;text-wrap-mode: nowrap;&quot;&gt;+Task&amp;gt; GetUtilisateursAsync()&lt;/span&gt;" style="text;whiteSpace=wrap;html=1;" parent="cwjUSwcgFx_ftopS6102-44" vertex="1">
          <mxGeometry y="54" width="400" height="40" as="geometry" />
        </mxCell>
        <mxCell id="cwjUSwcgFx_ftopS6102-50" value="&lt;span style=&quot;text-wrap-mode: nowrap;&quot;&gt;+Task&amp;gt; GetUtilisateursAsync()&lt;/span&gt;" style="text;whiteSpace=wrap;html=1;" parent="cwjUSwcgFx_ftopS6102-44" vertex="1">
          <mxGeometry y="94" width="400" height="40" as="geometry" />
        </mxCell>
        <mxCell id="cwjUSwcgFx_ftopS6102-49" value="&lt;span style=&quot;text-wrap-mode: nowrap;&quot;&gt;+Task AjouterBadge()&lt;/span&gt;" style="text;whiteSpace=wrap;html=1;" parent="cwjUSwcgFx_ftopS6102-44" vertex="1">
          <mxGeometry y="134" width="400" height="40" as="geometry" />
        </mxCell>
        <mxCell id="cwjUSwcgFx_ftopS6102-51" value="+Task DeleteBadgeAsync()" style="text;whiteSpace=wrap;html=1;" parent="cwjUSwcgFx_ftopS6102-44" vertex="1">
          <mxGeometry y="174" width="400" height="40" as="geometry" />
        </mxCell>
        <mxCell id="cwjUSwcgFx_ftopS6102-52" value="+Task AssocierBadgeAUtilisateur(int utilisateurId, string badgeUID)" style="text;whiteSpace=wrap;html=1;" parent="cwjUSwcgFx_ftopS6102-44" vertex="1">
          <mxGeometry y="214" width="400" height="40" as="geometry" />
        </mxCell>
        <mxCell id="cwjUSwcgFx_ftopS6102-53" value="&lt;span style=&quot;color: rgb(0, 0, 0); font-family: Helvetica; font-size: 12px; font-style: normal; font-variant-ligatures: normal; font-variant-caps: normal; font-weight: 400; letter-spacing: normal; orphans: 2; text-align: left; text-indent: 0px; text-transform: none; widows: 2; word-spacing: 0px; -webkit-text-stroke-width: 0px; white-space: nowrap; background-color: rgb(236, 236, 236); text-decoration-thickness: initial; text-decoration-style: initial; text-decoration-color: initial; float: none; display: inline !important;&quot;&gt;+Task DesassocierBadgeDUtilisateur(string badgeUID, int utilisateurId)&lt;/span&gt;" style="text;whiteSpace=wrap;html=1;" parent="cwjUSwcgFx_ftopS6102-44" vertex="1">
          <mxGeometry y="254" width="400" height="40" as="geometry" />
        </mxCell>
        <mxCell id="cwjUSwcgFx_ftopS6102-54" value="&lt;span style=&quot;color: rgb(0, 0, 0); font-family: Helvetica; font-size: 12px; font-style: normal; font-variant-ligatures: normal; font-variant-caps: normal; font-weight: 400; letter-spacing: normal; orphans: 2; text-align: left; text-indent: 0px; text-transform: none; widows: 2; word-spacing: 0px; -webkit-text-stroke-width: 0px; white-space: nowrap; background-color: rgb(236, 236, 236); text-decoration-thickness: initial; text-decoration-style: initial; text-decoration-color: initial; float: none; display: inline !important;&quot;&gt;+Task ModifierEtatBadgeAsync(string badgeUID, bool isActive)&lt;/span&gt;" style="text;whiteSpace=wrap;html=1;" parent="cwjUSwcgFx_ftopS6102-44" vertex="1">
          <mxGeometry y="294" width="400" height="40" as="geometry" />
        </mxCell>
        <mxCell id="cwjUSwcgFx_ftopS6102-55" value="AppSetting" style="swimlane;fontStyle=2;align=center;verticalAlign=top;childLayout=stackLayout;horizontal=1;startSize=26;horizontalStack=0;resizeParent=1;resizeLast=0;collapsible=1;marginBottom=0;rounded=0;shadow=0;strokeWidth=1;" parent="WIyWlLk6GJQsqaUBKTNV-1" vertex="1">
          <mxGeometry x="1810" y="1200" width="230" height="120" as="geometry">
            <mxRectangle x="230" y="140" width="160" height="26" as="alternateBounds" />
          </mxGeometry>
        </mxCell>
        <mxCell id="cwjUSwcgFx_ftopS6102-56" value="+string ApiBaseUrl" style="text;align=left;verticalAlign=top;spacingLeft=4;spacingRight=4;overflow=hidden;rotatable=0;points=[[0,0.5],[1,0.5]];portConstraint=eastwest;" parent="cwjUSwcgFx_ftopS6102-55" vertex="1">
          <mxGeometry y="26" width="230" height="26" as="geometry" />
        </mxCell>
        <mxCell id="cwjUSwcgFx_ftopS6102-60" value="&lt;span style=&quot;color: rgb(0, 0, 0); font-family: Helvetica; font-size: 12px; font-style: normal; font-variant-ligatures: normal; font-variant-caps: normal; font-weight: 400; letter-spacing: normal; orphans: 2; text-align: left; text-indent: 0px; text-transform: none; widows: 2; word-spacing: 0px; -webkit-text-stroke-width: 0px; white-space: nowrap; background-color: rgb(236, 236, 236); text-decoration-thickness: initial; text-decoration-style: initial; text-decoration-color: initial; float: none; display: inline !important;&quot;&gt;+string ApiKey&lt;/span&gt;" style="text;whiteSpace=wrap;html=1;" parent="cwjUSwcgFx_ftopS6102-55" vertex="1">
          <mxGeometry y="52" width="230" height="40" as="geometry" />
        </mxCell>
        <mxCell id="cwjUSwcgFx_ftopS6102-57" value="" style="line;html=1;strokeWidth=1;align=left;verticalAlign=middle;spacingTop=-1;spacingLeft=3;spacingRight=3;rotatable=0;labelPosition=right;points=[];portConstraint=eastwest;" parent="cwjUSwcgFx_ftopS6102-55" vertex="1">
          <mxGeometry y="92" width="230" height="28" as="geometry" />
        </mxCell>
        <mxCell id="cwjUSwcgFx_ftopS6102-61" value="Utilisateur" style="swimlane;fontStyle=2;align=center;verticalAlign=top;childLayout=stackLayout;horizontal=1;startSize=26;horizontalStack=0;resizeParent=1;resizeLast=0;collapsible=1;marginBottom=0;rounded=0;shadow=0;strokeWidth=1;" parent="WIyWlLk6GJQsqaUBKTNV-1" vertex="1">
          <mxGeometry x="890" y="850" width="230" height="360" as="geometry">
            <mxRectangle x="230" y="140" width="160" height="26" as="alternateBounds" />
          </mxGeometry>
        </mxCell>
        <mxCell id="cwjUSwcgFx_ftopS6102-62" value="+int id" style="text;align=left;verticalAlign=top;spacingLeft=4;spacingRight=4;overflow=hidden;rotatable=0;points=[[0,0.5],[1,0.5]];portConstraint=eastwest;" parent="cwjUSwcgFx_ftopS6102-61" vertex="1">
          <mxGeometry y="26" width="230" height="26" as="geometry" />
        </mxCell>
        <mxCell id="cwjUSwcgFx_ftopS6102-63" value="&lt;span style=&quot;color: rgb(0, 0, 0); font-family: Helvetica; font-size: 12px; font-style: normal; font-variant-ligatures: normal; font-variant-caps: normal; font-weight: 400; letter-spacing: normal; orphans: 2; text-align: left; text-indent: 0px; text-transform: none; widows: 2; word-spacing: 0px; -webkit-text-stroke-width: 0px; white-space: nowrap; background-color: rgb(236, 236, 236); text-decoration-thickness: initial; text-decoration-style: initial; text-decoration-color: initial; float: none; display: inline !important;&quot;&gt;&amp;nbsp;+string Nom&lt;/span&gt;" style="text;whiteSpace=wrap;html=1;" parent="cwjUSwcgFx_ftopS6102-61" vertex="1">
          <mxGeometry y="52" width="230" height="40" as="geometry" />
        </mxCell>
        <mxCell id="cwjUSwcgFx_ftopS6102-65" value="&lt;span style=&quot;color: rgb(0, 0, 0); font-family: Helvetica; font-size: 12px; font-style: normal; font-variant-ligatures: normal; font-variant-caps: normal; font-weight: 400; letter-spacing: normal; orphans: 2; text-align: left; text-indent: 0px; text-transform: none; widows: 2; word-spacing: 0px; -webkit-text-stroke-width: 0px; white-space: nowrap; background-color: rgb(236, 236, 236); text-decoration-thickness: initial; text-decoration-style: initial; text-decoration-color: initial; float: none; display: inline !important;&quot;&gt;&amp;nbsp;+string Prenom&lt;/span&gt;" style="text;whiteSpace=wrap;html=1;" parent="cwjUSwcgFx_ftopS6102-61" vertex="1">
          <mxGeometry y="92" width="230" height="40" as="geometry" />
        </mxCell>
        <mxCell id="cwjUSwcgFx_ftopS6102-66" value="&lt;span style=&quot;color: rgb(0, 0, 0); font-family: Helvetica; font-size: 12px; font-style: normal; font-variant-ligatures: normal; font-variant-caps: normal; font-weight: 400; letter-spacing: normal; orphans: 2; text-align: left; text-indent: 0px; text-transform: none; widows: 2; word-spacing: 0px; -webkit-text-stroke-width: 0px; white-space: nowrap; background-color: rgb(236, 236, 236); text-decoration-thickness: initial; text-decoration-style: initial; text-decoration-color: initial; float: none; display: inline !important;&quot;&gt;&amp;nbsp;+string Identifiant&lt;/span&gt;" style="text;whiteSpace=wrap;html=1;" parent="cwjUSwcgFx_ftopS6102-61" vertex="1">
          <mxGeometry y="132" width="230" height="40" as="geometry" />
        </mxCell>
        <mxCell id="cwjUSwcgFx_ftopS6102-67" value="&lt;span style=&quot;color: rgb(0, 0, 0); font-family: Helvetica; font-size: 12px; font-style: normal; font-variant-ligatures: normal; font-variant-caps: normal; font-weight: 400; letter-spacing: normal; orphans: 2; text-align: left; text-indent: 0px; text-transform: none; widows: 2; word-spacing: 0px; -webkit-text-stroke-width: 0px; white-space: nowrap; background-color: rgb(236, 236, 236); text-decoration-thickness: initial; text-decoration-style: initial; text-decoration-color: initial; float: none; display: inline !important;&quot;&gt;&amp;nbsp;+string Role&lt;/span&gt;" style="text;whiteSpace=wrap;html=1;" parent="cwjUSwcgFx_ftopS6102-61" vertex="1">
          <mxGeometry y="172" width="230" height="40" as="geometry" />
        </mxCell>
        <mxCell id="cwjUSwcgFx_ftopS6102-68" value="&lt;span style=&quot;color: rgb(0, 0, 0); font-family: Helvetica; font-size: 12px; font-style: normal; font-variant-ligatures: normal; font-variant-caps: normal; font-weight: 400; letter-spacing: normal; orphans: 2; text-align: left; text-indent: 0px; text-transform: none; widows: 2; word-spacing: 0px; -webkit-text-stroke-width: 0px; white-space: nowrap; background-color: rgb(236, 236, 236); text-decoration-thickness: initial; text-decoration-style: initial; text-decoration-color: initial; float: none; display: inline !important;&quot;&gt;&amp;nbsp;+string MotDePasse&lt;/span&gt;" style="text;whiteSpace=wrap;html=1;" parent="cwjUSwcgFx_ftopS6102-61" vertex="1">
          <mxGeometry y="212" width="230" height="40" as="geometry" />
        </mxCell>
        <mxCell id="cwjUSwcgFx_ftopS6102-69" value="&lt;span style=&quot;color: rgb(0, 0, 0); font-family: Helvetica; font-size: 12px; font-style: normal; font-variant-ligatures: normal; font-variant-caps: normal; font-weight: 400; letter-spacing: normal; orphans: 2; text-align: left; text-indent: 0px; text-transform: none; widows: 2; word-spacing: 0px; -webkit-text-stroke-width: 0px; white-space: nowrap; background-color: rgb(236, 236, 236); text-decoration-thickness: initial; text-decoration-style: initial; text-decoration-color: initial; float: none; display: inline !important;&quot;&gt;+DateTime DateDeNaissance&lt;/span&gt;" style="text;whiteSpace=wrap;html=1;" parent="cwjUSwcgFx_ftopS6102-61" vertex="1">
          <mxGeometry y="252" width="230" height="40" as="geometry" />
        </mxCell>
        <mxCell id="cwjUSwcgFx_ftopS6102-70" value="&lt;span style=&quot;color: rgb(0, 0, 0); font-family: Helvetica; font-size: 12px; font-style: normal; font-variant-ligatures: normal; font-variant-caps: normal; font-weight: 400; letter-spacing: normal; orphans: 2; text-align: left; text-indent: 0px; text-transform: none; widows: 2; word-spacing: 0px; -webkit-text-stroke-width: 0px; white-space: nowrap; background-color: rgb(236, 236, 236); text-decoration-thickness: initial; text-decoration-style: initial; text-decoration-color: initial; float: none; display: inline !important;&quot;&gt;+int IdClasse&lt;/span&gt;" style="text;whiteSpace=wrap;html=1;" parent="cwjUSwcgFx_ftopS6102-61" vertex="1">
          <mxGeometry y="292" width="230" height="40" as="geometry" />
        </mxCell>
        <mxCell id="cwjUSwcgFx_ftopS6102-64" value="" style="line;html=1;strokeWidth=1;align=left;verticalAlign=middle;spacingTop=-1;spacingLeft=3;spacingRight=3;rotatable=0;labelPosition=right;points=[];portConstraint=eastwest;" parent="cwjUSwcgFx_ftopS6102-61" vertex="1">
          <mxGeometry y="332" width="230" height="28" as="geometry" />
        </mxCell>
        <mxCell id="cwjUSwcgFx_ftopS6102-84" value="FormAssocierBadge" style="swimlane;fontStyle=2;align=center;verticalAlign=top;childLayout=stackLayout;horizontal=1;startSize=26;horizontalStack=0;resizeParent=1;resizeLast=0;collapsible=1;marginBottom=0;rounded=0;shadow=0;strokeWidth=1;" parent="WIyWlLk6GJQsqaUBKTNV-1" vertex="1">
          <mxGeometry x="690" y="1581" width="390" height="518" as="geometry">
            <mxRectangle x="230" y="140" width="160" height="26" as="alternateBounds" />
          </mxGeometry>
        </mxCell>
        <mxCell id="cwjUSwcgFx_ftopS6102-85" value="+ComboBox comboBoxBadges" style="text;align=left;verticalAlign=top;spacingLeft=4;spacingRight=4;overflow=hidden;rotatable=0;points=[[0,0.5],[1,0.5]];portConstraint=eastwest;" parent="cwjUSwcgFx_ftopS6102-84" vertex="1">
          <mxGeometry y="26" width="390" height="34" as="geometry" />
        </mxCell>
        <mxCell id="cwjUSwcgFx_ftopS6102-89" value="&lt;span style=&quot;color: rgb(0, 0, 0); font-family: Helvetica; font-size: 12px; font-style: normal; font-variant-ligatures: normal; font-variant-caps: normal; font-weight: 400; letter-spacing: normal; orphans: 2; text-align: left; text-indent: 0px; text-transform: none; widows: 2; word-spacing: 0px; -webkit-text-stroke-width: 0px; white-space: nowrap; background-color: rgb(236, 236, 236); text-decoration-thickness: initial; text-decoration-style: initial; text-decoration-color: initial; float: none; display: inline !important;&quot;&gt;&amp;nbsp;+ComboBox comboBoxUtilisateurs&lt;/span&gt;" style="text;whiteSpace=wrap;html=1;" parent="cwjUSwcgFx_ftopS6102-84" vertex="1">
          <mxGeometry y="60" width="390" height="38" as="geometry" />
        </mxCell>
        <mxCell id="cwjUSwcgFx_ftopS6102-90" value="&lt;span style=&quot;color: rgb(0, 0, 0); font-family: Helvetica; font-size: 12px; font-style: normal; font-variant-ligatures: normal; font-variant-caps: normal; font-weight: 400; letter-spacing: normal; orphans: 2; text-align: left; text-indent: 0px; text-transform: none; widows: 2; word-spacing: 0px; -webkit-text-stroke-width: 0px; white-space: nowrap; background-color: rgb(236, 236, 236); text-decoration-thickness: initial; text-decoration-style: initial; text-decoration-color: initial; float: none; display: inline !important;&quot;&gt;&amp;nbsp;+Button BtnAssocier&lt;/span&gt;" style="text;whiteSpace=wrap;html=1;" parent="cwjUSwcgFx_ftopS6102-84" vertex="1">
          <mxGeometry y="98" width="390" height="40" as="geometry" />
        </mxCell>
        <mxCell id="cwjUSwcgFx_ftopS6102-91" value="&lt;span style=&quot;color: rgb(0, 0, 0); font-family: Helvetica; font-size: 12px; font-style: normal; font-variant-ligatures: normal; font-variant-caps: normal; font-weight: 400; letter-spacing: normal; orphans: 2; text-align: left; text-indent: 0px; text-transform: none; widows: 2; word-spacing: 0px; -webkit-text-stroke-width: 0px; white-space: normal; background-color: rgb(236, 236, 236); text-decoration-thickness: initial; text-decoration-style: initial; text-decoration-color: initial; float: none; display: inline !important;&quot;&gt;&amp;nbsp;+Button BtnDesassocier&lt;/span&gt;" style="text;whiteSpace=wrap;html=1;" parent="cwjUSwcgFx_ftopS6102-84" vertex="1">
          <mxGeometry y="138" width="390" height="40" as="geometry" />
        </mxCell>
        <mxCell id="cwjUSwcgFx_ftopS6102-92" value="&lt;span style=&quot;color: rgb(0, 0, 0); font-family: Helvetica; font-size: 12px; font-style: normal; font-variant-ligatures: normal; font-variant-caps: normal; font-weight: 400; letter-spacing: normal; orphans: 2; text-align: left; text-indent: 0px; text-transform: none; widows: 2; word-spacing: 0px; -webkit-text-stroke-width: 0px; white-space: normal; background-color: rgb(236, 236, 236); text-decoration-thickness: initial; text-decoration-style: initial; text-decoration-color: initial; float: none; display: inline !important;&quot;&gt;&amp;nbsp;+CheckBox checkBoxIsActive&lt;/span&gt;" style="text;whiteSpace=wrap;html=1;" parent="cwjUSwcgFx_ftopS6102-84" vertex="1">
          <mxGeometry y="178" width="390" height="40" as="geometry" />
        </mxCell>
        <mxCell id="cwjUSwcgFx_ftopS6102-86" value="" style="line;html=1;strokeWidth=1;align=left;verticalAlign=middle;spacingTop=-1;spacingLeft=3;spacingRight=3;rotatable=0;labelPosition=right;points=[];portConstraint=eastwest;" parent="cwjUSwcgFx_ftopS6102-84" vertex="1">
          <mxGeometry y="218" width="390" height="58" as="geometry" />
        </mxCell>
        <mxCell id="cwjUSwcgFx_ftopS6102-87" value="&lt;span style=&quot;text-wrap-mode: nowrap;&quot;&gt;&amp;nbsp;+FrmAssocierBadge_Load()&lt;/span&gt;" style="text;whiteSpace=wrap;html=1;" parent="cwjUSwcgFx_ftopS6102-84" vertex="1">
          <mxGeometry y="276" width="390" height="40" as="geometry" />
        </mxCell>
        <mxCell id="cwjUSwcgFx_ftopS6102-88" value="&amp;nbsp;+ChargerBadges()" style="text;whiteSpace=wrap;html=1;" parent="cwjUSwcgFx_ftopS6102-84" vertex="1">
          <mxGeometry y="316" width="390" height="40" as="geometry" />
        </mxCell>
        <mxCell id="cwjUSwcgFx_ftopS6102-95" value="&lt;span style=&quot;color: rgb(0, 0, 0); font-family: Helvetica; font-size: 12px; font-style: normal; font-variant-ligatures: normal; font-variant-caps: normal; font-weight: 400; letter-spacing: normal; orphans: 2; text-align: left; text-indent: 0px; text-transform: none; widows: 2; word-spacing: 0px; -webkit-text-stroke-width: 0px; white-space: normal; background-color: rgb(236, 236, 236); text-decoration-thickness: initial; text-decoration-style: initial; text-decoration-color: initial; float: none; display: inline !important;&quot;&gt;&amp;nbsp;+ChargerUtilisateurs()&lt;/span&gt;" style="text;whiteSpace=wrap;html=1;" parent="cwjUSwcgFx_ftopS6102-84" vertex="1">
          <mxGeometry y="356" width="390" height="40" as="geometry" />
        </mxCell>
        <mxCell id="cwjUSwcgFx_ftopS6102-96" value="&lt;span style=&quot;color: rgb(0, 0, 0); font-family: Helvetica; font-size: 12px; font-style: normal; font-variant-ligatures: normal; font-variant-caps: normal; font-weight: 400; letter-spacing: normal; orphans: 2; text-align: left; text-indent: 0px; text-transform: none; widows: 2; word-spacing: 0px; -webkit-text-stroke-width: 0px; white-space: normal; background-color: rgb(236, 236, 236); text-decoration-thickness: initial; text-decoration-style: initial; text-decoration-color: initial; float: none; display: inline !important;&quot;&gt;&amp;nbsp;+BtnAssocier_Click()&lt;/span&gt;" style="text;whiteSpace=wrap;html=1;" parent="cwjUSwcgFx_ftopS6102-84" vertex="1">
          <mxGeometry y="396" width="390" height="40" as="geometry" />
        </mxCell>
        <mxCell id="cwjUSwcgFx_ftopS6102-97" value="&lt;span style=&quot;color: rgb(0, 0, 0); font-family: Helvetica; font-size: 12px; font-style: normal; font-variant-ligatures: normal; font-variant-caps: normal; font-weight: 400; letter-spacing: normal; orphans: 2; text-align: left; text-indent: 0px; text-transform: none; widows: 2; word-spacing: 0px; -webkit-text-stroke-width: 0px; white-space: normal; background-color: rgb(236, 236, 236); text-decoration-thickness: initial; text-decoration-style: initial; text-decoration-color: initial; float: none; display: inline !important;&quot;&gt;&amp;nbsp;+BtnDesassocier_Click()&lt;/span&gt;" style="text;whiteSpace=wrap;html=1;" parent="cwjUSwcgFx_ftopS6102-84" vertex="1">
          <mxGeometry y="436" width="390" height="40" as="geometry" />
        </mxCell>
        <mxCell id="cwjUSwcgFx_ftopS6102-98" value="&lt;span style=&quot;color: rgb(0, 0, 0); font-family: Helvetica; font-size: 12px; font-style: normal; font-variant-ligatures: normal; font-variant-caps: normal; font-weight: 400; letter-spacing: normal; orphans: 2; text-align: left; text-indent: 0px; text-transform: none; widows: 2; word-spacing: 0px; -webkit-text-stroke-width: 0px; white-space: normal; background-color: rgb(236, 236, 236); text-decoration-thickness: initial; text-decoration-style: initial; text-decoration-color: initial; float: none; display: inline !important;&quot;&gt;&amp;nbsp;+BtnModifierEtatBadge_Click&lt;/span&gt;" style="text;whiteSpace=wrap;html=1;" parent="cwjUSwcgFx_ftopS6102-84" vertex="1">
          <mxGeometry y="476" width="390" height="40" as="geometry" />
        </mxCell>
        <mxCell id="AHgLOt9KZORfeLYSkVOy-0" value="" style="endArrow=classic;html=1;rounded=0;entryX=1;entryY=0.25;entryDx=0;entryDy=0;exitX=0;exitY=0.25;exitDx=0;exitDy=0;" edge="1" parent="WIyWlLk6GJQsqaUBKTNV-1" source="cwjUSwcgFx_ftopS6102-47" target="cwjUSwcgFx_ftopS6102-69">
          <mxGeometry width="50" height="50" relative="1" as="geometry">
            <mxPoint x="1300" y="1210" as="sourcePoint" />
            <mxPoint x="1890" y="1070" as="targetPoint" />
          </mxGeometry>
        </mxCell>
        <mxCell id="AHgLOt9KZORfeLYSkVOy-1" value="" style="endArrow=classic;html=1;rounded=0;exitX=0;exitY=0;exitDx=0;exitDy=0;entryX=1;entryY=0;entryDx=0;entryDy=0;" edge="1" parent="WIyWlLk6GJQsqaUBKTNV-1" source="cwjUSwcgFx_ftopS6102-53" target="cwjUSwcgFx_ftopS6102-23">
          <mxGeometry width="50" height="50" relative="1" as="geometry">
            <mxPoint x="1630" y="1030" as="sourcePoint" />
            <mxPoint x="1900" y="872" as="targetPoint" />
          </mxGeometry>
        </mxCell>
        <mxCell id="AHgLOt9KZORfeLYSkVOy-2" value="" style="endArrow=classic;html=1;rounded=0;exitX=1;exitY=0.75;exitDx=0;exitDy=0;entryX=0;entryY=0.5;entryDx=0;entryDy=0;" edge="1" parent="WIyWlLk6GJQsqaUBKTNV-1" source="cwjUSwcgFx_ftopS6102-54" target="zkfFHV4jXpPFQw0GAbJ--2">
          <mxGeometry width="50" height="50" relative="1" as="geometry">
            <mxPoint x="1530" y="1200" as="sourcePoint" />
            <mxPoint x="1500" y="880" as="targetPoint" />
          </mxGeometry>
        </mxCell>
        <mxCell id="AHgLOt9KZORfeLYSkVOy-3" value="" style="endArrow=classic;html=1;rounded=0;exitX=0;exitY=1;exitDx=0;exitDy=0;entryX=1;entryY=0.5;entryDx=0;entryDy=0;" edge="1" parent="WIyWlLk6GJQsqaUBKTNV-1" source="cwjUSwcgFx_ftopS6102-54" target="cwjUSwcgFx_ftopS6102-92">
          <mxGeometry width="50" height="50" relative="1" as="geometry">
            <mxPoint x="1720" y="1230" as="sourcePoint" />
            <mxPoint x="1990" y="1072" as="targetPoint" />
          </mxGeometry>
        </mxCell>
        <mxCell id="AHgLOt9KZORfeLYSkVOy-5" value="" style="endArrow=classic;html=1;rounded=0;exitX=1;exitY=0.25;exitDx=0;exitDy=0;entryX=0;entryY=0.5;entryDx=0;entryDy=0;" edge="1" parent="WIyWlLk6GJQsqaUBKTNV-1" source="cwjUSwcgFx_ftopS6102-47" target="cwjUSwcgFx_ftopS6102-60">
          <mxGeometry width="50" height="50" relative="1" as="geometry">
            <mxPoint x="1740" y="1250" as="sourcePoint" />
            <mxPoint x="2130" y="1310" as="targetPoint" />
          </mxGeometry>
        </mxCell>
        <mxCell id="AHgLOt9KZORfeLYSkVOy-6" value="" style="endArrow=classic;html=1;rounded=0;exitX=0.5;exitY=0;exitDx=0;exitDy=0;entryX=0.5;entryY=1;entryDx=0;entryDy=0;" edge="1" parent="WIyWlLk6GJQsqaUBKTNV-1" source="cwjUSwcgFx_ftopS6102-26" target="cwjUSwcgFx_ftopS6102-54">
          <mxGeometry width="50" height="50" relative="1" as="geometry">
            <mxPoint x="1750" y="1260" as="sourcePoint" />
            <mxPoint x="2020" y="1102" as="targetPoint" />
          </mxGeometry>
        </mxCell>
        <mxCell id="AHgLOt9KZORfeLYSkVOy-7" value="" style="endArrow=classic;html=1;rounded=0;entryX=0.5;entryY=0;entryDx=0;entryDy=0;exitX=0.75;exitY=1;exitDx=0;exitDy=0;" edge="1" parent="WIyWlLk6GJQsqaUBKTNV-1" source="cwjUSwcgFx_ftopS6102-61" target="cwjUSwcgFx_ftopS6102-14">
          <mxGeometry width="50" height="50" relative="1" as="geometry">
            <mxPoint x="930" y="1160" as="sourcePoint" />
            <mxPoint x="2030" y="1112" as="targetPoint" />
          </mxGeometry>
        </mxCell>
        <mxCell id="AHgLOt9KZORfeLYSkVOy-9" value="" style="endArrow=classic;html=1;rounded=0;exitX=0.5;exitY=0;exitDx=0;exitDy=0;entryX=0;entryY=1;entryDx=0;entryDy=0;" edge="1" parent="WIyWlLk6GJQsqaUBKTNV-1" source="cwjUSwcgFx_ftopS6102-84" target="cwjUSwcgFx_ftopS6102-23">
          <mxGeometry width="50" height="50" relative="1" as="geometry">
            <mxPoint x="1770" y="1280" as="sourcePoint" />
            <mxPoint x="860" y="1450" as="targetPoint" />
          </mxGeometry>
        </mxCell>
        <mxCell id="AHgLOt9KZORfeLYSkVOy-10" value="" style="endArrow=classic;html=1;rounded=0;exitX=0.5;exitY=0;exitDx=0;exitDy=0;entryX=0;entryY=1;entryDx=0;entryDy=0;" edge="1" parent="WIyWlLk6GJQsqaUBKTNV-1" source="cwjUSwcgFx_ftopS6102-84" target="cwjUSwcgFx_ftopS6102-61">
          <mxGeometry width="50" height="50" relative="1" as="geometry">
            <mxPoint x="1780" y="1290" as="sourcePoint" />
            <mxPoint x="2050" y="1132" as="targetPoint" />
          </mxGeometry>
        </mxCell>
        <mxCell id="AHgLOt9KZORfeLYSkVOy-11" value="" style="endArrow=classic;html=1;rounded=0;exitX=1;exitY=0;exitDx=0;exitDy=0;entryX=0;entryY=1;entryDx=0;entryDy=0;" edge="1" parent="WIyWlLk6GJQsqaUBKTNV-1" source="cwjUSwcgFx_ftopS6102-87" target="cwjUSwcgFx_ftopS6102-0">
          <mxGeometry width="50" height="50" relative="1" as="geometry">
            <mxPoint x="580" y="2308" as="sourcePoint" />
            <mxPoint x="850" y="2150" as="targetPoint" />
          </mxGeometry>
        </mxCell>
        <mxCell id="AHgLOt9KZORfeLYSkVOy-13" value="" style="endArrow=classic;html=1;rounded=0;exitX=-0.015;exitY=0.817;exitDx=0;exitDy=0;entryX=1;entryY=1;entryDx=0;entryDy=0;exitPerimeter=0;" edge="1" parent="WIyWlLk6GJQsqaUBKTNV-1" source="cwjUSwcgFx_ftopS6102-28" target="cwjUSwcgFx_ftopS6102-98">
          <mxGeometry width="50" height="50" relative="1" as="geometry">
            <mxPoint x="1810" y="1320" as="sourcePoint" />
            <mxPoint x="800" y="2260" as="targetPoint" />
          </mxGeometry>
        </mxCell>
        <mxCell id="AHgLOt9KZORfeLYSkVOy-14" value="" style="endArrow=classic;html=1;rounded=0;exitX=0;exitY=0;exitDx=0;exitDy=0;entryX=1;entryY=0.75;entryDx=0;entryDy=0;" edge="1" parent="WIyWlLk6GJQsqaUBKTNV-1" source="cwjUSwcgFx_ftopS6102-37" target="cwjUSwcgFx_ftopS6102-65">
          <mxGeometry width="50" height="50" relative="1" as="geometry">
            <mxPoint x="1820" y="1330" as="sourcePoint" />
            <mxPoint x="2090" y="1172" as="targetPoint" />
          </mxGeometry>
        </mxCell>
        <mxCell id="AHgLOt9KZORfeLYSkVOy-15" value="" style="endArrow=classic;html=1;rounded=0;exitX=1;exitY=0;exitDx=0;exitDy=0;entryX=0.75;entryY=1;entryDx=0;entryDy=0;" edge="1" parent="WIyWlLk6GJQsqaUBKTNV-1" source="cwjUSwcgFx_ftopS6102-26" target="cwjUSwcgFx_ftopS6102-38">
          <mxGeometry width="50" height="50" relative="1" as="geometry">
            <mxPoint x="1830" y="1340" as="sourcePoint" />
            <mxPoint x="2100" y="1182" as="targetPoint" />
          </mxGeometry>
        </mxCell>
        <mxCell id="AHgLOt9KZORfeLYSkVOy-16" value="" style="endArrow=classic;html=1;rounded=0;exitX=0;exitY=1;exitDx=0;exitDy=0;entryX=0.5;entryY=0;entryDx=0;entryDy=0;" edge="1" parent="WIyWlLk6GJQsqaUBKTNV-1" source="cwjUSwcgFx_ftopS6102-26" target="cwjUSwcgFx_ftopS6102-39">
          <mxGeometry width="50" height="50" relative="1" as="geometry">
            <mxPoint x="1840" y="1350" as="sourcePoint" />
            <mxPoint x="2110" y="1192" as="targetPoint" />
          </mxGeometry>
        </mxCell>
      </root>
    </mxGraphModel>
  </diagram>
</mxfile>
